P1
5 8
0001000110011111111111111011110011000010
