P1
5 8
0100001100111101111111111111100110001000
