P1
5 8
0111011111100011000110001111111111111111
