P1
5 8
0111011111100011111111111111111111111111
