P1
5 8
0111011111100011000110001100011000111111 
