P1
5 8
0000001010111101000111110100011111001010
