P1
5 8
0000000110010011110001000111000100100110
