P1
5 8
1111110001010100101000000100010111000000
